<svg width="100" height="100" xmlns="http://www.w3.org/2000/svg">

 <g>
  <title>background</title>
  <rect fill="none" id="canvas_background" height="102" width="102" y="-1" x="-1"/>
 </g>
 <g>
  <title>Layer 1</title>
  <g id="svg_1">
   <path id="svg_2" d="m33.27,28.705c5.151,-7.298 13.717,-13.655 24.374,-15.031c11.603,-1.888 23.649,2.672 30.981,9.786c0.765,0.649 1.009,1.539 1.371,2.36c-0.394,0.038 -1.173,0.109 -1.564,0.144c-5.094,-2.94 -10.821,-4.998 -16.535,-7.036c-2.426,-1.028 -6.024,-1.105 -7.71,0.88l-0.512,0.449c-1.105,3.708 1.236,7.208 3.608,10.258c1.405,1.826 3.274,3.452 4.063,5.543c-0.823,0.075 -1.642,0.147 -2.465,0.219c-5.504,-2.828 -10.727,-6.137 -16.826,-8.123c-2.997,-1.036 -6.299,-0.612 -9.052,0.665c-4.23,2.126 -7.882,4.866 -11.282,7.763c-0.728,0.799 -1.985,0.874 -3.096,1.055c0.468,-3.266 2.781,-6.085 4.645,-8.932z" fill="#c6b791"/>
   <g id="svg_3">
    <path id="svg_4" d="m11.653,53.709c-5.959,-10.851 0.509,-24.268 12.624,-30.542c0.381,0.106 1.127,0.312 1.501,0.418c-2.104,3.084 -4.686,5.944 -6.637,9.091c-1.904,3.012 -4.12,6.633 -2.503,10.014c1.583,2.385 5.4,1.976 8.088,1.255l0.471,-0.406l0.737,0.259l0.709,-0.431l-0.11,-0.34c2.279,-0.331 4.17,-1.42 5.975,-2.5c1.779,-1.058 3.608,-2.098 5.678,-2.769c1.031,1.661 -0.765,3.034 -1.76,4.38c-2.632,3.291 -5.516,6.48 -7.683,9.998c-1.233,2.066 -1.982,4.54 -0.771,6.744c2.351,4.308 6.665,7.667 10.889,10.84c-0.84,0.585 -1.677,1.172 -2.507,1.766c-10.251,-3.63 -20.41,-9.153 -24.701,-17.777z" fill="#ffffff"/>
   </g>
   <g id="svg_5">
    <path id="svg_6" d="m45.413,31.196c2.797,-1.592 7.349,-0.424 8.612,2.119c1.464,2.089 0.06,4.761 -2.2,6.093c-1.958,0.506 -4.349,1.159 -6.234,0.144c-3.912,-1.557 -4.143,-6.711 -0.178,-8.356z" fill="#c6b791"/>
   </g>
   <g id="svg_7">
    <path id="svg_8" d="m25.197,43.539c0.332,-0.128 1.002,-0.381 1.336,-0.512l0.11,0.34l-0.709,0.431l-0.737,-0.259z" fill="#74C7E3"/>
   </g>
   <g id="svg_9">
    <path id="svg_10" d="m33.123,52.554c3.387,-2.491 9.665,-0.674 9.952,3.072c0.955,3.752 -4.898,6.773 -8.899,4.863c-3.616,-1.465 -4.24,-5.918 -1.053,-7.935z" fill="#ffffff"/>
   </g>
   <g id="svg_11">
    <path id="svg_12" d="m38.861,69.719c0.902,0.631 1.354,1.474 1.426,2.434c-1.342,-0.085 -2.672,-0.287 -3.933,-0.668c0.83,-0.594 1.667,-1.181 2.507,-1.766z" fill="#ffffff"/>
   </g>
   <g id="svg_13">
    <path id="svg_14" d="m56.663,72.174c-1.014,0.516 -2.254,0.478 -3.402,0.602c0.179,-1.393 1.336,-2.459 2.375,-3.508c2.882,-2.854 5.772,-5.706 8.369,-8.725c1.648,-1.902 2.872,-4.155 2.829,-6.497c-1.605,-5.063 -5.96,-9.133 -10.096,-13.023c-0.693,-0.593 -0.587,-1.464 -0.818,-2.194c2.897,0.253 5.264,1.673 7.701,2.809c7.42,3.777 14.269,8.825 17.529,15.497c3.596,6.742 2.746,14.771 -1.924,21.046c-1.305,1.673 -2.491,3.543 -4.619,4.642c-1.936,0.89 -3.766,1.916 -5.767,2.716c0.992,-1.517 1.958,-3.057 2.42,-4.735c1.092,-2.294 3.155,-4.233 4.033,-6.615c0.88,-1.586 0.333,-3.314 0.184,-4.973c-1.03,-0.658 -2.22,-1.143 -3.455,-1.508c-5.619,0.011 -10.617,2.309 -15.359,4.466z" fill="#c4a8a8"/>
    <g id="svg_15">
     <path id="svg_16" d="m52.212,57.33c-2.535,-2.737 -0.094,-6.989 4.062,-7.454c3.667,-0.543 7.479,2.106 6.977,5.125c0.174,4.455 -8.361,6.097 -11.039,2.329z" fill="#c4a8a8"/>
    </g>
    <g id="svg_17">
     <path id="svg_18" d="m64.861,88.715c0.162,-0.824 0.149,-1.742 0.939,-2.389c1.851,-1.822 3.405,-3.83 5.46,-5.524c-0.462,1.679 -1.428,3.219 -2.42,4.735c2.001,-0.8 3.831,-1.826 5.767,-2.716c0.059,0.861 -1.178,1.468 -1.82,2.082c-2.389,1.546 -4.651,3.631 -7.926,3.812z" fill="#c4a8a8"/>
    </g>
   </g>
  </g>
 </g>
</svg>